<mxfile host="app.diagrams.net" modified="2024-02-14T02:59:25.115Z" agent="Mozilla/5.0 (Windows NT 10.0; Win64; x64) AppleWebKit/537.36 (KHTML, like Gecko) Chrome/121.0.0.0 Safari/537.36 Edg/121.0.0.0" version="23.1.4" etag="MQ7NFs87Qf34E38ha3Ld" type="github">
  <diagram name="第 1 页" id="R6dDxv-ryi3DW5Czvwme">
    <mxGraphModel>
      <root>
        <mxCell id="0" />
        <mxCell id="1" parent="0" />
      </root>
    </mxGraphModel>
  </diagram>
</mxfile>
